<svg xmlns="http://www.w3.org/2000/svg" width="237" height="237" viewBox="0 0 237 237" version="1.1"><path d="M 95 67 L 95 70 101 70 L 107 70 107 67 L 107 64 101 64 L 95 64 95 67 M 110.704 64.630 C 110.317 65.017, 110 66.383, 110 67.667 C 110 69.940, 110.235 70, 119.066 70 L 128.133 70 127.816 67.250 C 127.504 64.532, 127.407 64.497, 119.454 64.213 C 115.028 64.055, 111.091 64.242, 110.704 64.630 M 131 66.903 C 131 69.688, 131.216 69.824, 136.250 70.215 C 143.093 70.746, 144 70.358, 144 66.893 L 144 64 137.500 64 L 131 64 131 66.903 M 44.455 198.455 C 41.644 201.265, 41.317 204.580, 43.537 207.749 C 44.933 209.742, 46.967 210.553, 55.250 212.419 C 57.105 212.837, 58 213.677, 58 215 C 58 217.686, 53.736 218.612, 48.194 217.129 C 44.858 216.237, 43.429 216.229, 42.385 217.096 C 40.215 218.897, 40.724 219.987, 44.468 221.551 C 51.272 224.394, 61.759 222.678, 63.379 218.455 C 65.228 213.635, 62.366 208.524, 57.222 207.462 C 49.568 205.881, 48.500 205.391, 48.500 203.463 C 48.500 201.731, 49.205 201.500, 54.500 201.500 C 60.292 201.500, 63 200.736, 63 199.101 C 63 197.532, 57.767 196, 52.407 196 C 47.903 196, 46.465 196.444, 44.455 198.455 M 73.873 198.822 C 70.917 201.464, 70.712 202.086, 70.668 208.572 C 70.642 212.382, 71.169 216.508, 71.840 217.740 C 74.241 222.150, 82.446 224.437, 87.043 221.977 C 88.403 221.249, 89.533 221.316, 90.961 222.208 C 92.643 223.258, 93.253 223.172, 94.734 221.674 C 96.414 219.974, 96.415 219.839, 94.750 218.894 C 93.302 218.072, 93 216.457, 93 209.539 C 93 201.430, 92.907 201.100, 89.923 198.589 C 85.442 194.818, 78.237 194.923, 73.873 198.822 M 101.789 208.750 C 101.560 215.762, 101.540 221.838, 101.745 222.250 C 101.950 222.662, 106.591 223, 112.059 223 C 121.996 223, 122 222.999, 122 220.500 C 122 218.056, 121.833 218, 114.500 218 L 107 218 107 207 C 107 196.059, 106.987 196, 104.603 196 C 102.220 196, 102.203 196.078, 101.789 208.750 M 121 197.943 C 121 199.513, 121.814 199.944, 125.250 200.193 L 129.500 200.500 129.783 211.750 C 130.064 222.925, 130.082 223, 132.500 223 C 134.918 223, 134.936 222.925, 135.217 211.750 L 135.500 200.500 139.750 200.193 C 143.186 199.944, 144 199.513, 144 197.943 C 144 196.132, 143.220 196, 132.500 196 C 121.780 196, 121 196.132, 121 197.943 M 150.923 198.923 C 148.238 201.608, 148 202.428, 148 208.989 C 148 212.917, 148.463 216.997, 149.030 218.055 C 151.973 223.555, 162.952 224.503, 167.780 219.675 C 169.715 217.739, 170.434 215.808, 170.782 211.611 C 171.694 200.619, 168.290 196, 159.277 196 C 154.608 196, 153.436 196.410, 150.923 198.923 M 174 196.465 C 174 196.720, 176.025 200.265, 178.500 204.341 C 182.421 210.800, 183 212.477, 183 217.377 C 183 222.708, 183.130 223, 185.500 223 C 187.843 223, 188 222.677, 188 217.848 C 188 213.565, 188.759 211.381, 192.500 204.895 C 194.975 200.604, 197 196.847, 197 196.547 C 197 196.246, 195.762 196, 194.250 196.001 C 191.992 196.002, 190.998 196.896, 188.692 201.001 C 187.148 203.750, 185.693 206, 185.459 206 C 185.225 206, 183.894 203.750, 182.500 201 C 180.313 196.684, 179.558 196, 176.983 196 C 175.342 196, 174 196.209, 174 196.465 M 78.113 201.909 C 77.351 202.392, 76.507 205.077, 76.238 207.877 C 75.680 213.681, 77.722 218, 81.023 218 C 83.207 218, 83.720 216.409, 81.750 215.746 C 79.311 214.925, 82.979 211.957, 85.614 212.618 C 87.822 213.172, 88 212.927, 88 209.331 C 88 204.309, 85.686 200.995, 82.193 201.015 C 80.712 201.024, 78.876 201.426, 78.113 201.909 M 155.200 202.200 C 154.522 202.878, 154 206.126, 154 209.665 C 154 214.835, 154.338 216.110, 155.934 216.965 C 161.224 219.796, 165 216.730, 165 209.606 C 165 203.113, 163.690 201, 159.665 201 C 157.869 201, 155.860 201.540, 155.200 202.200" stroke="none" fill="#e5892f" fill-rule="evenodd"/><path d="M 117.699 14.500 C 117.327 16.700, 117.017 20.368, 117.011 22.652 C 117.001 26.364, 116.681 26.915, 113.994 27.852 C 110.892 28.933, 109 32.209, 109 36.498 C 109 37.949, 108.262 39.100, 107.092 39.471 C 103.366 40.653, 97.161 48.638, 95.483 54.410 C 94.594 57.470, 94.191 60.500, 94.588 61.143 C 95.125 62.011, 93.850 62.140, 89.642 61.646 C 76.853 60.143, 62.809 59.690, 62.148 60.760 C 61.783 61.352, 61.487 64.460, 61.492 67.668 L 61.500 73.500 67.500 73.745 C 70.800 73.880, 81.150 73.205, 90.500 72.245 L 107.500 70.500 107.500 67 C 107.500 63.685, 107.289 63.468, 103.500 62.892 C 101.300 62.557, 108.275 62.284, 119 62.284 C 129.725 62.284, 136.700 62.557, 134.500 62.892 C 130.711 63.468, 130.500 63.685, 130.500 67 L 130.500 70.500 147.500 72.245 C 156.850 73.205, 167.149 73.880, 170.388 73.745 L 176.275 73.500 176.419 67.705 C 176.498 64.517, 176.253 61.409, 175.875 60.797 C 175.189 59.687, 161.402 60.113, 148.358 61.646 C 144.150 62.140, 142.875 62.011, 143.412 61.143 C 143.809 60.500, 143.406 57.470, 142.517 54.410 C 140.839 48.638, 134.634 40.653, 130.908 39.471 C 129.738 39.100, 129 37.949, 129 36.498 C 129 32.115, 127.145 29.087, 123.535 27.579 C 120.141 26.161, 119.996 25.890, 119.900 20.801 C 119.845 17.885, 119.480 14.375, 119.088 13 C 118.441 10.727, 118.314 10.863, 117.699 14.500 M 110.200 64.200 C 109.540 64.860, 109.045 66.323, 109.100 67.450 C 109.183 69.167, 109.312 69.094, 109.895 67 C 110.566 64.587, 110.882 64.500, 119 64.500 C 127.118 64.500, 127.434 64.587, 128.105 67 C 128.688 69.094, 128.817 69.167, 128.900 67.450 C 129.072 63.921, 127.023 63, 119 63 C 114.422 63, 110.923 63.477, 110.200 64.200 M 95 67 L 95 70 101 70 L 107 70 107 67 L 107 64 101 64 L 95 64 95 67 M 131 66.903 C 131 69.688, 131.216 69.824, 136.250 70.215 C 143.093 70.746, 144 70.358, 144 66.893 L 144 64 137.500 64 L 131 64 131 66.903 M 114.250 70.735 C 116.862 70.941, 121.138 70.941, 123.750 70.735 C 126.362 70.529, 124.225 70.360, 119 70.360 C 113.775 70.360, 111.638 70.529, 114.250 70.735 M 96.685 73.648 C 96.308 74.025, 96 76.571, 96 79.306 C 96 82.870, 96.496 84.656, 97.750 85.608 C 99.293 86.780, 98.998 86.940, 95.250 86.968 C 92.912 86.986, 91 87.295, 91 87.656 C 91 88.016, 92.144 89.811, 93.542 91.644 L 96.084 94.977 93.542 126.465 C 92.144 143.784, 91 159.764, 91 161.977 L 91 166 95.451 166 C 100.312 166, 110.048 164.204, 111.259 163.085 C 111.676 162.698, 112.527 157.373, 113.151 151.251 C 114.148 141.456, 114.087 139.703, 112.642 136.658 C 110.331 131.789, 110.573 129.418, 114 123.346 C 115.650 120.422, 117.005 116.561, 117.011 114.765 C 117.017 112.969, 117.301 109.813, 117.642 107.750 C 118.231 104.186, 118.450 104, 122.048 104 C 125.613 104, 125.916 104.248, 127.250 108.250 L 128.667 112.500 136.083 112.500 L 143.500 112.500 143.160 102.987 C 142.852 94.366, 143.016 93.296, 144.910 91.582 C 148.258 88.551, 147.559 87, 142.845 87 C 138.831 87, 138.748 86.936, 140.404 85.106 C 141.644 83.736, 142.033 81.867, 141.809 78.356 L 141.500 73.500 119.435 73.231 C 107.300 73.084, 97.062 73.271, 96.685 73.648 M 132 115.050 C 126.240 116.021, 122.430 117.517, 119.154 120.093 C 111.168 126.376, 110.898 135.998, 118.567 141.054 C 123.695 144.434, 130.510 143.475, 135.831 138.625 L 138.163 136.500 137.453 139.500 C 134.233 153.121, 126.270 160.356, 109.042 165.318 L 100.584 167.754 104.579 168.429 C 106.777 168.800, 110.800 168.605, 113.521 167.995 C 125.295 165.357, 134.018 159.277, 140.220 149.386 C 142.363 145.966, 144.829 142.896, 145.700 142.562 C 147.921 141.709, 152 144.640, 152 147.088 C 152 150.247, 142.306 159.124, 134.287 163.307 C 120.455 170.523, 125.975 171.096, 140.848 163.987 C 146.795 161.145, 151.141 158.121, 155.955 153.473 C 161.259 148.353, 162.946 147.230, 163.795 148.253 C 165.364 150.143, 162.095 156.898, 157.892 160.451 C 153.107 164.497, 143.519 168.784, 135.412 170.501 C 124.956 172.716, 115.192 172.339, 99.500 169.116 C 79.990 165.108, 75.956 164.665, 71.025 165.993 C 67.164 167.033, 62 171.099, 62 173.099 C 62 173.543, 64.138 173.657, 66.750 173.352 C 69.593 173.020, 78.690 173.857, 89.412 175.436 C 112.154 178.786, 123.563 179.498, 133 178.156 C 155.147 175.007, 169.379 165.464, 172.923 151.390 C 177.755 132.203, 154.219 111.304, 132 115.050 M 44.034 197.812 C 38.222 203.624, 41.395 210.249, 51.029 212.419 C 54.520 213.205, 56.500 214.167, 56.500 215.076 C 56.500 217.035, 52.560 217.417, 47.360 215.961 C 43.911 214.995, 42.702 215.002, 41.507 215.994 C 34.877 221.496, 52.513 227.033, 60.723 222.027 C 66.630 218.425, 66.236 210.870, 59.980 207.782 C 58.066 206.838, 54.784 205.799, 52.686 205.475 C 46.512 204.520, 48.714 202.463, 55.634 202.721 C 60.700 202.910, 61.745 202.638, 62.865 200.844 C 65.010 197.409, 62.248 195.636, 54.031 195.172 C 47.375 194.796, 46.934 194.912, 44.034 197.812 M 74.277 196.973 C 70.998 198.972, 69.443 202.370, 70.295 205.671 C 70.571 206.737, 70.816 206.181, 70.884 204.339 C 71.060 199.546, 75.787 196, 82 196 C 85.755 196, 87.539 196.583, 89.923 198.589 C 92.907 201.100, 93 201.430, 93 209.539 C 93 216.457, 93.302 218.072, 94.750 218.894 C 96.415 219.839, 96.414 219.974, 94.734 221.674 C 93.253 223.172, 92.643 223.258, 90.961 222.208 C 89.533 221.316, 88.403 221.249, 87.043 221.977 C 81.788 224.790, 72.576 221.427, 71.439 216.281 C 70.424 211.682, 70.162 211.352, 70.079 214.563 C 70.023 216.740, 70.887 218.476, 73.066 220.563 C 76.021 223.394, 76.475 223.500, 85.706 223.500 C 93.612 223.500, 95.468 223.205, 96.349 221.809 C 97.159 220.524, 97.005 219.663, 95.708 218.230 C 94.429 216.816, 94 214.527, 94 209.106 C 94 205.125, 93.537 201.003, 92.970 199.945 C 90.352 195.052, 80.100 193.422, 74.277 196.973 M 101.214 206.750 L 101.428 218.500 101.747 207.250 C 102.064 196.043, 102.075 196, 104.533 196 L 107 196 107 207 L 107 218 114.500 218 C 121.884 218, 122 218.040, 122 220.564 L 122 223.129 111.498 222.814 C 105.722 222.641, 100.997 222.838, 100.998 223.250 C 100.999 223.662, 105.950 224, 112 224 L 123 224 123 220.500 L 123 217 115.500 217 L 108 217 108 206 L 108 195 104.500 195 L 101 195 101.214 206.750 M 120.374 196.468 C 119.311 199.237, 120.802 200.866, 124.694 201.186 L 128.500 201.500 128.783 212.750 L 129.066 224 132.500 224 L 135.934 224 136.217 212.750 L 136.500 201.500 140.500 201 C 143.967 200.567, 144.500 200.167, 144.500 198 L 144.500 195.500 132.731 195.218 C 122.906 194.983, 120.865 195.189, 120.374 196.468 M 150.400 198.400 C 147.148 201.652, 147 202.121, 147 209.177 C 147 217.343, 148.208 220.022, 153.011 222.506 C 159.273 225.744, 168.211 223.133, 170.623 217.360 C 171.380 215.547, 171.936 211.687, 171.858 208.782 C 171.717 203.539, 171.711 203.550, 171.023 210.312 C 170.472 215.724, 169.806 217.648, 167.783 219.672 C 162.952 224.503, 151.974 223.556, 149.030 218.055 C 148.463 216.997, 148 212.917, 148 208.989 C 148 202.428, 148.238 201.608, 150.923 198.923 C 153.431 196.415, 154.603 196.003, 159.173 196.022 C 164.699 196.045, 167.682 197.577, 169.839 201.500 C 170.735 203.129, 170.945 203.192, 170.970 201.839 C 170.986 200.925, 169.615 199.013, 167.923 197.589 C 165.426 195.488, 163.806 195, 159.323 195 C 154.375 195, 153.446 195.354, 150.400 198.400 M 173 196.123 C 173 196.741, 175.025 200.582, 177.500 204.659 C 181.502 211.250, 182 212.731, 182 218.035 L 182 224 185.500 224 L 189 224 189.002 218.250 C 189.004 213.127, 189.549 211.594, 194.002 204.190 C 196.751 199.619, 199 195.682, 199 195.440 C 199 195.198, 197.219 195, 195.042 195 C 191.393 195, 190.873 195.360, 188.372 199.628 C 185.431 204.647, 185.439 204.649, 181.797 198.075 C 180.392 195.540, 179.470 195, 176.547 195 C 174.589 195, 173 195.503, 173 196.123 M 44.455 198.455 C 41.644 201.265, 41.317 204.580, 43.537 207.749 C 44.933 209.742, 46.967 210.553, 55.250 212.419 C 57.105 212.837, 58 213.677, 58 215 C 58 217.686, 53.736 218.612, 48.194 217.129 C 44.858 216.237, 43.429 216.229, 42.385 217.096 C 40.215 218.897, 40.724 219.987, 44.468 221.551 C 51.272 224.394, 61.759 222.678, 63.379 218.455 C 65.228 213.635, 62.366 208.524, 57.222 207.462 C 49.568 205.881, 48.500 205.391, 48.500 203.463 C 48.500 201.731, 49.205 201.500, 54.500 201.500 C 60.292 201.500, 63 200.736, 63 199.101 C 63 197.532, 57.767 196, 52.407 196 C 47.903 196, 46.465 196.444, 44.455 198.455 M 121 197.943 C 121 199.513, 121.814 199.944, 125.250 200.193 L 129.500 200.500 129.783 211.750 C 130.064 222.925, 130.082 223, 132.500 223 C 134.918 223, 134.936 222.925, 135.217 211.750 L 135.500 200.500 139.750 200.193 C 143.186 199.944, 144 199.513, 144 197.943 C 144 196.132, 143.220 196, 132.500 196 C 121.780 196, 121 196.132, 121 197.943 M 174 196.465 C 174 196.720, 176.025 200.265, 178.500 204.341 C 182.421 210.800, 183 212.477, 183 217.377 C 183 222.708, 183.130 223, 185.500 223 C 187.843 223, 188 222.677, 188 217.848 C 188 213.565, 188.759 211.381, 192.500 204.895 C 194.975 200.604, 197 196.847, 197 196.547 C 197 196.246, 195.762 196, 194.250 196.001 C 191.992 196.002, 190.998 196.896, 188.692 201.001 C 187.148 203.750, 185.693 206, 185.459 206 C 185.225 206, 183.894 203.750, 182.500 201 C 180.313 196.684, 179.558 196, 176.983 196 C 175.342 196, 174 196.209, 174 196.465 M 78.113 201.909 C 77.351 202.392, 76.507 205.077, 76.238 207.877 C 75.680 213.681, 77.722 218, 81.023 218 C 83.207 218, 83.720 216.409, 81.750 215.746 C 79.311 214.925, 82.979 211.957, 85.614 212.618 C 87.822 213.172, 88 212.927, 88 209.331 C 88 204.309, 85.686 200.995, 82.193 201.015 C 80.712 201.024, 78.876 201.426, 78.113 201.909 M 155.200 202.200 C 154.522 202.878, 154 206.126, 154 209.665 C 154 214.835, 154.338 216.110, 155.934 216.965 C 161.224 219.796, 165 216.730, 165 209.606 C 165 203.113, 163.690 201, 159.665 201 C 157.869 201, 155.860 201.540, 155.200 202.200 M 78.035 203.934 C 76.756 206.324, 76.708 212.989, 77.955 214.961 C 78.716 216.164, 79.258 215.942, 81.012 213.711 C 82.185 212.220, 84.012 211, 85.073 211 C 86.475 211, 87 210.301, 87 208.434 C 87 204.255, 85.248 202, 82 202 C 80.127 202, 78.697 202.698, 78.035 203.934 M 155.667 202.667 C 154.510 203.824, 154.945 214.545, 156.200 215.800 C 158.037 217.637, 161.808 217.228, 162.965 215.066 C 164.380 212.422, 164.272 204.672, 162.800 203.200 C 161.517 201.917, 156.772 201.562, 155.667 202.667" stroke="none" fill="#183353" fill-rule="evenodd"/></svg>